<svg width="756" height="513" viewBox="0 0 756 513" fill="none" xmlns="http://www.w3.org/2000/svg">
<g clip-path="url(#clip0_265_3207)">
<path d="M689.551 511.438L667.959 443.347C667.959 443.347 691.709 468.165 691.709 488.529L687.446 441.438C687.446 441.438 699.626 458.62 698.408 484.711C697.19 510.802 689.551 511.438 689.551 511.438Z" fill="#E6E6E6"/>
<path d="M225.863 449.438L204.79 382.984C204.79 382.984 227.969 407.205 227.969 427.079L223.809 381.121C223.809 381.121 235.696 397.889 234.507 423.353C233.318 448.817 225.863 449.438 225.863 449.438Z" fill="#E6E6E6"/>
<path d="M554.775 480.104C554.811 523.818 471.84 510.372 370.264 510.463C268.688 510.555 186.972 524.15 186.936 480.435C186.899 436.721 269.84 427.138 371.416 427.047C472.992 426.955 554.739 436.389 554.775 480.104Z" fill="#E6E6E6"/>
<path d="M756 510.438H0V512.438H756V510.438Z" fill="#3F3D56"/>
<path d="M483.588 421.066H470.308L463.988 367.542H483.588V421.066Z" fill="#A0616A"/>
<path d="M459.348 417.102H486.434V433.953H444.697V432.411C444.697 428.351 446.241 424.457 448.988 421.586C451.736 418.715 455.462 417.102 459.348 417.102Z" fill="#2F2E41"/>
<path d="M581.197 500.066H567.917L561.598 446.542H581.197V500.066Z" fill="#A0616A"/>
<path d="M556.958 496.102H584.044V512.953H542.308V511.411C542.308 507.351 543.851 503.457 546.599 500.586C549.346 497.715 553.072 496.102 556.958 496.102Z" fill="#2F2E41"/>
<path d="M642.451 341.054C643.369 339.89 644.032 338.53 644.393 337.07C644.754 335.61 644.804 334.085 644.54 332.602C644.276 331.12 643.703 329.715 642.864 328.489C642.024 327.262 640.937 326.243 639.68 325.503L608.837 194.21L589.116 203.076L625.802 330.025C624.752 332.315 624.542 334.928 625.212 337.368C625.883 339.809 627.386 341.908 629.439 343.267C631.491 344.627 633.949 345.152 636.347 344.744C638.746 344.336 640.917 343.023 642.451 341.054Z" fill="#A0616A"/>
<path d="M618.396 75.7082C617.296 74.5057 615.956 73.5701 614.472 72.9672C612.988 72.3643 611.395 72.1088 609.806 72.2187C608.217 72.3286 606.671 72.8011 605.275 73.6032C603.88 74.4052 602.67 75.5171 601.731 76.8607L553.992 82.5877L561.254 101.829L604.669 93.3383C606.934 94.838 609.646 95.4175 612.292 94.9671C614.939 94.5167 617.335 93.0676 619.027 90.8945C620.719 88.7214 621.589 85.9751 621.473 83.1762C621.357 80.3772 620.262 77.7201 618.396 75.7082Z" fill="#A0616A"/>
<path d="M539.727 327.438L560.558 490.812L586.485 485.234C586.485 485.234 582.672 366.252 595.636 351.909C608.6 337.565 578.962 312.438 578.962 312.438L539.727 327.438Z" fill="#2F2E41"/>
<path d="M548.339 282.438L538.77 297.438C538.77 297.438 465.084 265.438 465.084 316.438C465.084 367.437 460.867 402.047 459.342 404.438C457.817 406.828 476.986 413.031 486.137 411.438C486.137 411.438 497.426 329.219 496.663 324.438C496.663 324.438 568.946 361.471 582.672 358.283C596.399 355.096 599.641 343.812 601.929 337.438C604.217 331.063 600.972 280.438 600.972 280.438L555.22 265.847L548.339 282.438Z" fill="#2F2E41"/>
<path d="M549.63 192.378L546.902 188.957C546.902 188.957 516.353 117.129 528.354 97.7468C540.356 78.3646 592.727 75.5143 594.364 76.6544C596 77.7945 590.455 92.5972 594.273 99.438C594.273 99.438 553.704 108.629 550.976 109.769C548.248 110.909 571.997 153.043 571.997 153.043L569.269 178.696L549.63 192.378Z" fill="#CCCCCC"/>
<path d="M603.092 157.033C603.092 157.033 574.724 160.454 573.633 160.454C572.542 160.454 571.997 153.043 571.997 153.043L546.902 188.957C546.902 188.957 534.539 293.148 537.812 291.438C541.086 289.728 601.455 299.55 602.001 294.989C602.546 290.429 601.455 267.626 603.092 266.486C604.729 265.346 631.46 194.658 631.46 194.658C631.46 194.658 628.732 179.836 619.458 174.705C610.184 169.575 603.092 157.033 603.092 157.033Z" fill="#CCCCCC"/>
<path d="M622.732 184.966L631.46 194.657C631.46 194.657 644.429 306.017 637.337 309.438C630.245 312.858 616.284 312.438 616.284 312.438L602.547 259.645L622.732 184.966Z" fill="#CCCCCC"/>
<path d="M575.832 149.981C589.7 149.981 600.942 138.234 600.942 123.742C600.942 109.251 589.7 97.5034 575.832 97.5034C561.965 97.5034 550.723 109.251 550.723 123.742C550.723 138.234 561.965 149.981 575.832 149.981Z" fill="#A0616A"/>
<path d="M569.94 127.836C569.601 122.392 563.028 122.205 557.807 122.154C552.586 122.102 546.344 122.297 543.39 117.799C541.438 114.826 541.811 110.698 543.423 107.511C545.036 104.323 547.689 101.872 550.299 99.5133C557.038 93.4245 563.982 87.3839 572.072 83.4867C580.162 79.5894 589.643 78.0147 598.033 81.1432C608.339 84.9863 622.272 104.769 623.475 116.135C624.678 127.501 620.331 139.087 613.004 147.581C605.677 156.074 588.906 152.647 578.352 155.669C584.768 146.179 580.539 128.936 570.26 124.505L569.94 127.836Z" fill="#2F2E41"/>
<path d="M346.154 467.238C379.445 467.238 406.433 439.037 406.433 404.249C406.433 369.461 379.445 341.26 346.154 341.26C312.864 341.26 285.876 369.461 285.876 404.249C285.876 439.037 312.864 467.238 346.154 467.238Z" fill="#DD3333"/>
<path d="M305.899 336.784C297.545 336.784 289.37 334.255 282.363 329.501C275.356 324.747 269.818 317.972 266.419 309.998L170.769 84.906C167.601 77.4498 165.925 69.3953 165.845 61.2375C165.765 53.0796 167.282 44.9909 170.304 37.4684C173.325 29.9459 177.787 23.1487 183.415 17.4944C189.043 11.8402 195.718 7.44843 203.03 4.58909C210.342 1.72974 218.136 0.463236 225.934 0.867421C233.731 1.27161 241.367 3.33794 248.373 6.93941C255.378 10.5409 261.604 15.6014 266.669 21.8099C271.734 28.0184 275.53 35.2437 277.824 43.0418L347.087 278.454C349.07 285.192 349.513 292.323 348.38 299.272C347.248 306.222 344.571 312.797 340.566 318.47C336.56 324.142 331.337 328.754 325.317 331.935C319.296 335.116 312.646 336.776 305.899 336.784H305.899Z" fill="#DD3333"/>
</g>
<defs>
<clipPath id="clip0_265_3207">
<rect width="756" height="512.208" fill="white" transform="translate(0 0.744629)"/>
</clipPath>
</defs>
</svg>
