<svg width="608" height="479" viewBox="0 0 608 479" fill="none" xmlns="http://www.w3.org/2000/svg">
<g clip-path="url(#clip0_265_2961)">
<path d="M184.036 184.902C180.783 180.684 176.184 176.781 175.893 171.577C175.626 166.803 179.184 162.064 177.684 157.497C176.53 153.985 172.724 151.867 169.004 150.745C161.884 148.627 154.264 148.921 147.327 151.58L147.704 151.314C143.47 149.805 138.521 151.363 135.19 154.248C131.858 157.133 129.879 161.132 128.343 165.139C126.806 169.146 125.616 173.3 123.482 177.057C121.347 180.814 118.079 184.23 113.767 185.529C115.211 188.41 119.723 189.398 122.37 187.413C123.046 186.863 123.654 186.235 124.18 185.541C125.945 183.393 127.71 181.246 129.475 179.099C131.292 182.33 128.578 186.791 130.811 189.783C131.962 191.325 134.064 191.911 136.017 192.332C151.279 195.59 167.111 195.002 182.09 190.622C183.294 190.267 184.622 189.778 185.121 188.688C185.698 187.43 184.892 186.011 184.036 184.902Z" fill="#2F2E41"/>
<path d="M227.311 201.361C227.215 201.78 227.153 202.206 227.125 202.635L193.767 221.888L185.659 217.218L177.015 228.54L190.566 238.202C191.66 238.983 192.979 239.387 194.323 239.354C195.667 239.322 196.964 238.854 198.019 238.02L232.417 210.871C233.969 211.446 235.66 211.535 237.264 211.125C238.868 210.715 240.309 209.827 241.395 208.577C242.482 207.328 243.163 205.778 243.347 204.132C243.532 202.486 243.211 200.823 242.428 199.364C241.644 197.905 240.436 196.72 238.962 195.965C237.489 195.21 235.821 194.922 234.18 195.139C232.539 195.355 231.002 196.067 229.775 197.178C228.548 198.29 227.689 199.749 227.311 201.361H227.311Z" fill="#FFB7B7"/>
<path d="M192.652 222.8L181.87 236.779C181.564 237.177 181.175 237.504 180.73 237.738C180.286 237.972 179.796 238.107 179.295 238.134C178.793 238.162 178.292 238.081 177.825 237.897C177.357 237.713 176.935 237.431 176.587 237.069L164.382 224.389C162.356 222.808 161.04 220.487 160.722 217.936C160.405 215.385 161.111 212.812 162.686 210.781C164.262 208.751 166.578 207.428 169.127 207.104C171.676 206.779 174.25 207.479 176.284 209.05L191.591 217.614C192.03 217.859 192.41 218.196 192.706 218.601C193.002 219.007 193.208 219.472 193.309 219.964C193.409 220.456 193.403 220.964 193.289 221.454C193.176 221.943 192.958 222.402 192.652 222.8H192.652Z" fill="#DD3333"/>
<path d="M177.814 466.374L187.334 466.373L191.863 429.636L177.812 429.636L177.814 466.374Z" fill="#FFB7B7"/>
<path d="M175.385 463.264L194.134 463.264H194.135C197.304 463.264 200.343 464.523 202.583 466.765C204.824 469.007 206.083 472.047 206.083 475.217V475.606L175.386 475.607L175.385 463.264Z" fill="#2F2E41"/>
<path d="M112.584 466.374L122.105 466.373L126.634 429.636L112.583 429.636L112.584 466.374Z" fill="#FFB7B7"/>
<path d="M110.156 463.264L128.905 463.264H128.906C132.074 463.264 135.113 464.523 137.354 466.765C139.595 469.007 140.854 472.047 140.854 475.217V475.606L110.157 475.607L110.156 463.264Z" fill="#2F2E41"/>
<path d="M172.097 179.708C173.088 170.671 166.57 162.541 157.537 161.549C148.504 160.557 140.378 167.079 139.387 176.116C138.395 185.152 144.914 193.282 153.946 194.274C162.979 195.266 171.105 188.745 172.097 179.708Z" fill="#FFB7B7"/>
<path d="M165.369 202.588L175.062 207.392C175.062 207.392 185.892 226.222 179.679 244.09C176.663 252.766 185.157 280.42 185.157 280.42C185.157 280.42 198.316 405.684 198.358 444.344C182.009 446.859 166.478 449.966 165.702 442.198C164.925 434.429 156.425 342.571 156.425 342.571C156.425 342.571 144.735 444.528 135.417 446.082C126.098 447.636 107.461 445.305 107.461 445.305C107.461 445.305 122.257 295.958 132.352 286.635L133.905 278.866L133.863 209.13L145.494 203.577L165.369 202.588Z" fill="#2F2E41"/>
<path d="M130.694 308.455C131.767 307.875 132.699 307.066 133.425 306.086C134.152 305.106 134.654 303.978 134.898 302.783C135.142 301.587 135.12 300.353 134.835 299.166C134.551 297.98 134.009 296.87 133.25 295.916L144.522 220.743L129.795 220.035L121.007 294.897C119.489 296.281 118.531 298.173 118.314 300.216C118.098 302.258 118.637 304.31 119.831 305.981C121.025 307.652 122.791 308.827 124.793 309.283C126.795 309.739 128.894 309.445 130.694 308.455Z" fill="#FFB7B7"/>
<path d="M144.202 239.578L126.589 238.466C126.087 238.434 125.599 238.295 125.157 238.057C124.714 237.82 124.328 237.49 124.024 237.089C123.721 236.689 123.507 236.228 123.398 235.738C123.289 235.247 123.287 234.739 123.391 234.248L127.061 217.032C127.237 214.467 128.423 212.077 130.358 210.386C132.293 208.694 134.819 207.839 137.383 208.009C139.947 208.178 142.339 209.358 144.035 211.29C145.73 213.221 146.591 215.746 146.428 218.312L147.905 235.796C147.947 236.297 147.88 236.801 147.71 237.273C147.54 237.746 147.27 238.176 146.919 238.535C146.568 238.894 146.143 239.173 145.674 239.353C145.206 239.533 144.703 239.61 144.202 239.578H144.202Z" fill="#DD3333"/>
<path d="M172.986 167.212C172.345 164.302 170.262 161.891 167.863 160.126C163.908 157.215 159.059 155.785 154.158 156.083C149.258 156.381 144.617 158.389 141.044 161.757C139.047 163.522 137.608 165.83 136.902 168.399C136.565 169.684 136.547 171.031 136.849 172.324C137.152 173.616 137.766 174.816 138.637 175.817L138.966 176.023C138.668 174.758 139.65 173.494 140.823 172.936C142.043 172.488 143.317 172.203 144.611 172.087C146.57 171.716 148.426 170.93 150.055 169.78C151.683 168.63 153.046 167.144 154.052 165.422C154.796 167.542 155.986 169.477 157.541 171.098C159.096 172.719 160.979 173.988 163.065 174.82C165.24 175.671 171.212 176.841 173.283 175.76C175.924 174.383 173.627 170.122 172.986 167.212Z" fill="#2F2E41"/>
<path d="M51.9234 443.68C54.7703 444.681 57.8269 444.932 60.7987 444.409C63.7706 443.885 66.5576 442.604 68.8911 440.69C74.8341 435.699 76.6977 427.48 78.2134 419.868L82.6978 397.35L73.3095 403.817C66.5575 408.468 59.6539 413.269 54.9794 420.005C50.3048 426.742 48.2655 435.938 52.0202 443.228" fill="#E6E6E6"/>
<path d="M53.373 472.51C52.1914 463.897 50.9756 455.173 51.8065 446.467C52.5428 438.736 54.9005 431.186 59.7003 424.993C62.2481 421.713 65.3483 418.902 68.8615 416.688C69.7774 416.11 70.6205 417.561 69.7086 418.138C63.6296 421.981 58.9277 427.656 56.2807 434.346C53.3574 441.784 52.888 449.893 53.3915 457.795C53.6959 462.574 54.3426 467.321 54.9922 472.062C55.0435 472.277 55.0115 472.503 54.9026 472.694C54.7938 472.886 54.6163 473.029 54.4059 473.095C54.1913 473.153 53.9625 473.124 53.7693 473.014C53.576 472.904 53.4339 472.723 53.3736 472.509L53.373 472.51Z" fill="#F2F2F2"/>
<path d="M61.8784 458.689C63.0992 460.546 64.7775 462.057 66.7515 463.077C68.7255 464.097 70.9287 464.59 73.1489 464.511C78.8557 464.24 83.6114 460.257 87.892 456.474L100.556 445.287L92.1749 444.886C86.1475 444.597 79.9646 444.326 74.2236 446.188C68.4827 448.05 63.1882 452.523 62.1386 458.468" fill="#E6E6E6"/>
<path d="M50.0329 477.461C55.7218 467.39 62.3199 456.198 74.1107 452.621C77.3888 451.629 80.8261 451.274 84.2375 451.575C85.3128 451.667 85.0443 453.325 83.9712 453.233C78.2527 452.758 72.5452 454.269 67.8097 457.511C63.2526 460.614 59.7043 464.928 56.7015 469.503C54.8619 472.306 53.2142 475.227 51.5665 478.145C51.04 479.077 49.5002 478.404 50.0329 477.461Z" fill="#F2F2F2"/>
<path d="M434.457 291.284C423.781 276.992 404.243 273.542 394.534 280.801C384.825 288.059 382.595 307.782 393.27 322.075C403.151 335.304 421.054 338.912 430.914 333.956C430.882 334.111 430.881 334.27 430.909 334.426L431.464 337.175C431.507 337.385 431.602 337.58 431.741 337.743C431.88 337.905 432.058 338.029 432.259 338.103C432.459 338.177 432.676 338.199 432.887 338.166C433.098 338.133 433.297 338.047 433.466 337.915L438.173 334.236C438.342 334.104 438.474 333.932 438.557 333.734C438.64 333.537 438.671 333.322 438.648 333.11C438.624 332.897 438.547 332.694 438.423 332.52C438.299 332.346 438.133 332.206 437.94 332.114L435.408 330.909C435.319 330.869 435.225 330.84 435.129 330.822C442.73 322.782 444.359 304.542 434.457 291.284Z" fill="#CCCCCC"/>
<path d="M411.106 285.888C416.328 286.718 421.032 289.522 424.247 293.721C427.463 297.92 428.944 303.195 428.385 308.455C428.27 309.66 430.152 309.652 430.266 308.455C430.804 302.785 429.18 297.121 425.72 292.6C422.259 288.078 417.217 285.032 411.606 284.073C410.422 283.872 409.913 285.685 411.106 285.888Z" fill="white"/>
<path d="M451.857 44.2265C461.19 29.0227 457.178 9.5837 446.85 3.23792C436.522 -3.10787 417.378 2.10328 408.044 17.3071C399.406 31.3801 402.666 49.3569 410.912 56.6938C410.757 56.7213 410.608 56.7784 410.474 56.8619L408.125 58.3943C407.946 58.5111 407.8 58.6718 407.7 58.861C407.601 59.0503 407.551 59.2619 407.556 59.4757C407.561 59.6894 407.621 59.8984 407.73 60.0826C407.838 60.2668 407.992 60.4201 408.177 60.5281L413.333 63.5459C413.518 63.6539 413.727 63.7129 413.941 63.7173C414.154 63.7218 414.366 63.6715 414.554 63.5712C414.743 63.471 414.903 63.3241 415.019 63.1446C415.136 62.965 415.204 62.7588 415.218 62.5454L415.402 59.746C415.406 59.6483 415.399 59.5505 415.38 59.4546C425.655 63.5518 443.199 58.3301 451.857 44.2265Z" fill="#CCCCCC"/>
<path d="M448.245 20.524C449.403 25.6855 448.536 31.0947 445.823 35.6351C443.11 40.1755 438.758 43.5005 433.665 44.9238C432.504 45.2622 433.206 47.0089 434.36 46.6727C439.825 45.0791 444.486 41.4773 447.408 36.5896C450.33 31.7019 451.297 25.8898 450.115 20.3187C449.865 19.1435 447.993 19.3401 448.245 20.524Z" fill="white"/>
<path d="M286.457 116.365C285.676 98.5394 271.469 84.6843 259.36 85.2149C247.252 85.7456 234.31 100.79 235.09 118.615C235.813 135.115 248.579 148.18 259.517 149.637C259.404 149.747 259.313 149.878 259.248 150.022L258.16 152.608C258.078 152.805 258.046 153.02 258.07 153.232C258.093 153.445 258.171 153.648 258.295 153.822C258.419 153.996 258.585 154.136 258.778 154.228C258.971 154.319 259.185 154.36 259.398 154.346L265.359 153.957C265.573 153.943 265.779 153.874 265.958 153.758C266.138 153.642 266.285 153.482 266.385 153.293C266.485 153.104 266.536 152.893 266.531 152.679C266.527 152.465 266.468 152.256 266.36 152.072L264.945 149.65C264.894 149.566 264.834 149.489 264.764 149.42C275.57 147.057 287.181 132.9 286.457 116.365Z" fill="#DD3333"/>
<path d="M270.194 98.7531C274.043 102.38 276.353 107.347 276.648 112.629C276.942 117.91 275.198 123.104 271.777 127.136C271.004 128.068 272.563 129.121 273.331 128.196C276.966 123.813 278.811 118.217 278.495 112.531C278.18 106.844 275.727 101.488 271.628 97.5349C270.763 96.7016 269.322 97.9136 270.194 98.7531Z" fill="white"/>
<path d="M341.977 234.614C337.309 234.32 332.778 232.924 328.754 230.539C324.731 228.155 321.329 224.85 318.828 220.896C318.127 219.776 317.213 218.544 317.698 217.164C317.867 216.635 318.21 216.179 318.672 215.871C319.133 215.562 319.686 215.42 320.239 215.466C321.669 215.64 322.592 217.04 322.769 218.382C322.969 219.903 321.896 221.098 320.571 221.663C317.334 223.045 314.068 220.91 311.431 219.206C305.423 215.323 298.814 211.812 291.534 211.37C284.798 210.96 277.575 213.603 273.828 219.447C273.172 220.469 274.8 221.414 275.452 220.397C279.168 214.601 286.68 212.519 293.211 213.415C297.103 214.029 300.861 215.306 304.323 217.189C306.118 218.121 307.859 219.155 309.565 220.241C311.188 221.374 312.909 222.361 314.707 223.19C317.705 224.422 321.674 224.326 323.768 221.489C325.722 218.842 324.212 214.436 320.944 213.692C320.227 213.551 319.487 213.589 318.788 213.805C318.09 214.02 317.456 214.406 316.944 214.927C316.431 215.448 316.056 216.088 315.851 216.789C315.647 217.491 315.619 218.233 315.772 218.947C316.098 220.506 317.271 222.031 318.179 223.305C320.907 227.144 324.461 230.323 328.58 232.606C332.698 234.889 337.276 236.218 341.977 236.496C343.187 236.556 343.184 234.674 341.977 234.614L341.977 234.614Z" fill="#CCCCCC"/>
<path d="M522.628 104.955C527.778 102.558 534.101 101.773 539.341 104C544.581 106.227 548.154 111.936 546.459 116.988C545.691 119.279 543.942 121.532 544.623 123.845C545.148 125.626 546.978 126.802 548.776 127.638C550.573 128.474 552.54 129.176 553.84 130.586C555.14 131.996 555.411 134.423 553.787 135.517C553.252 135.877 552.583 136.048 552.064 136.427C551.622 136.787 551.303 137.275 551.152 137.825C551 138.374 551.024 138.957 551.219 139.493C551.652 140.57 552.366 141.51 553.288 142.215C555.132 143.806 557.568 145.626 556.996 147.884C556.783 148.488 556.429 149.031 555.962 149.468C555.494 149.905 554.929 150.223 554.313 150.395C553.034 150.764 551.706 150.939 550.375 150.915L495.975 152.629C494.18 152.764 492.374 152.663 490.604 152.329C489.744 152.172 488.926 151.839 488.2 151.352C487.474 150.864 486.857 150.231 486.386 149.494C485.344 147.565 486.028 145.189 487.315 143.387C488.601 141.586 490.422 140.165 491.927 138.511C493.431 136.857 494.662 134.792 494.397 132.654C494.184 130.943 493.056 129.464 492.246 127.909C491.437 126.354 490.966 124.41 492.015 122.98C493.493 120.964 497.042 121.146 498.722 119.268C499.99 117.851 499.746 115.81 499.872 113.982C500.175 109.585 503.218 105.432 507.549 103.504C509.752 102.558 512.148 102.15 514.539 102.313C516.93 102.476 519.249 103.205 521.303 104.441L522.628 104.955Z" fill="#2F2E41"/>
<path d="M588.877 322.548V331.448L554.562 335.683L554.563 322.546L588.877 322.548Z" fill="#9E616A"/>
<path d="M597.501 320.278L597.5 348.977H597.137C594.176 348.977 591.336 347.8 589.242 345.705C587.149 343.61 585.972 340.769 585.972 337.807V337.806L585.973 320.278L597.501 320.278Z" fill="#2F2E41"/>
<path d="M546.458 337.688L544.274 346.316L509.97 341.994L513.194 329.26L546.458 337.688Z" fill="#9E616A"/>
<path d="M555.374 337.606L548.332 365.426L547.98 365.337C545.11 364.609 542.646 362.771 541.13 360.226C539.614 357.681 539.171 354.638 539.897 351.766L539.898 351.766L544.199 334.774L555.374 337.606Z" fill="#2F2E41"/>
<path d="M537.697 237.876L539.549 239.807C539.549 239.807 551.64 249.292 542.695 274.277L528.062 316.449L577.108 318.362L576.057 337.633C576.057 337.633 504.93 341.591 505.553 329.864C506.175 318.137 508.799 274.715 508.799 274.715L494.022 262.843L497.585 242.762L537.697 237.876Z" fill="#2F2E41"/>
<path d="M499.704 257.015L494.022 262.843L474.972 315.233C474.972 315.233 472.069 328.301 478.6 331.205C485.131 334.109 527.153 350.353 527.153 350.353L531.444 334.902L499.065 315.459L514.157 295.632L516.428 264.382L499.704 257.015Z" fill="#2F2E41"/>
<path d="M500.007 164.591L548.361 154.918L549.412 181.46L536.886 208.169L539.55 239.807L496.213 247.382L497.57 205.78C497.57 205.78 485.933 189.355 492.788 172.799L500.007 164.591Z" fill="#E4E4E4"/>
<path d="M607.829 101.63C608.071 102.744 608.066 103.898 607.815 105.01C607.563 106.122 607.071 107.166 606.373 108.067C605.675 108.968 604.787 109.705 603.774 110.226C602.76 110.747 601.644 111.039 600.506 111.082L554.137 164.875L543.356 151.786L592.325 103.025C592.38 101.106 593.136 99.2739 594.451 97.8757C595.765 96.4774 597.547 95.6101 599.458 95.4383C601.369 95.2664 603.277 95.8018 604.819 96.943C606.362 98.0842 607.433 99.752 607.829 101.63Z" fill="#9E616A"/>
<path d="M564.232 159.006C564.243 159.508 564.146 160.007 563.946 160.468C563.747 160.929 563.451 161.342 563.077 161.678L550.039 173.421C548.402 175.403 546.047 176.655 543.489 176.902C540.931 177.149 538.38 176.372 536.394 174.74C534.409 173.108 533.15 170.756 532.896 168.197C532.641 165.639 533.411 163.084 535.036 161.093L544.137 146.022C544.397 145.592 544.746 145.223 545.161 144.94C545.577 144.657 546.048 144.467 546.543 144.383C547.038 144.299 547.546 144.322 548.031 144.452C548.516 144.582 548.968 144.815 549.355 145.135L562.964 156.384C563.352 156.704 563.665 157.104 563.884 157.556C564.103 158.009 564.222 158.503 564.232 159.006Z" fill="#E4E4E4"/>
<path d="M424.187 228.049C424.114 226.911 424.292 225.771 424.708 224.709C425.123 223.647 425.766 222.69 426.592 221.904C427.417 221.118 428.405 220.522 429.485 220.159C430.566 219.796 431.712 219.675 432.845 219.803L486.757 173.58L495.452 188.139L439.724 228.997C439.382 230.886 438.36 232.584 436.851 233.769C435.341 234.954 433.45 235.544 431.534 235.427C429.619 235.31 427.813 234.495 426.459 233.135C425.105 231.775 424.297 229.965 424.187 228.049V228.049Z" fill="#9E616A"/>
<path d="M475.895 177.867C475.96 177.369 476.131 176.89 476.397 176.464C476.663 176.038 477.018 175.674 477.438 175.398L492.09 165.746C494.005 164.032 496.522 163.147 499.088 163.287C501.654 163.426 504.06 164.578 505.779 166.489C507.497 168.401 508.388 170.916 508.256 173.483C508.124 176.051 506.98 178.461 505.074 180.186L493.815 193.72C493.494 194.107 493.093 194.419 492.64 194.636C492.188 194.854 491.693 194.971 491.191 194.98C490.689 194.989 490.19 194.889 489.73 194.688C489.27 194.487 488.858 194.189 488.523 193.814L476.756 180.649C476.421 180.275 476.17 179.832 476.022 179.352C475.873 178.872 475.83 178.366 475.895 177.867Z" fill="#E4E4E4"/>
<path d="M520.615 152.208C530.459 152.208 538.438 144.225 538.438 134.377C538.438 124.529 530.459 116.546 520.615 116.546C510.772 116.546 502.792 124.529 502.792 134.377C502.792 144.225 510.772 152.208 520.615 152.208Z" fill="#9E616A"/>
<path d="M538.849 131.842C533.22 131.39 528.547 125.764 529.132 120.145C529.198 122.461 528.411 124.721 526.92 126.494C525.43 128.267 523.34 129.43 521.048 129.762C518.466 130.046 515.635 129.265 513.388 130.568C510.899 132.011 510.103 135.516 507.51 136.763C505.004 137.967 501.822 136.324 500.584 133.834C499.347 131.345 499.65 128.353 500.471 125.696C501.641 121.907 503.771 118.485 506.654 115.764C509.537 113.042 513.075 111.113 516.924 110.165C520.773 109.217 524.802 109.281 528.619 110.352C532.436 111.423 535.91 113.464 538.705 116.276C541.072 118.658 542.951 121.693 543.256 125.038C543.56 128.382 542.01 132.011 539.008 133.513L538.849 131.842Z" fill="#2F2E41"/>
<path d="M277.2 476.764H0.725532C0.533076 476.764 0.348514 476.688 0.212427 476.552C0.076341 476.416 -0.00012207 476.231 -0.00012207 476.038C-0.00012207 475.846 0.076341 475.661 0.212427 475.525C0.348514 475.389 0.533076 475.312 0.725532 475.312H277.2C277.392 475.312 277.577 475.389 277.713 475.525C277.849 475.661 277.925 475.846 277.925 476.038C277.925 476.231 277.849 476.416 277.713 476.552C277.577 476.688 277.392 476.764 277.2 476.764Z" fill="#CACACA"/>
</g>
<defs>
<clipPath id="clip0_265_2961">
<rect width="608" height="478" fill="white" transform="translate(-0.00012207 0.591309)"/>
</clipPath>
</defs>
</svg>
