<svg width="43" height="44" viewBox="0 0 43 44" fill="none" xmlns="http://www.w3.org/2000/svg">
<path d="M27.5652 8.2474C29.4966 8.2474 31.3489 9.02912 32.7146 10.4206C34.0803 11.8121 34.8475 13.6993 34.8475 15.6671V28.483C34.8475 30.4509 34.0803 32.3381 32.7146 33.7296C31.3489 35.121 29.4966 35.9028 27.5652 35.9028H14.9866C13.0552 35.9028 11.2029 35.121 9.83722 33.7296C8.47152 32.3381 7.70427 30.4509 7.70427 28.483V15.6671C7.70427 13.6993 8.47152 11.8121 9.83722 10.4206C11.2029 9.02912 13.0552 8.2474 14.9866 8.2474H27.5652ZM27.5652 5.54932H14.9866C12.3553 5.55732 9.83401 6.62588 7.97339 8.5216C6.11277 10.4173 5.06401 12.9862 5.05615 15.6671V28.483C5.06401 31.164 6.11277 33.7328 7.97339 35.6286C9.83401 37.5243 12.3553 38.5928 14.9866 38.6008H27.5652C30.1965 38.5928 32.7178 37.5243 34.5784 35.6286C36.439 33.7328 37.4878 31.164 37.4956 28.483V15.6671C37.4878 12.9862 36.439 10.4173 34.5784 8.5216C32.7178 6.62588 30.1965 5.55732 27.5652 5.54932Z" fill="white"/>
<path d="M29.9285 11.2827C29.5533 11.2827 29.1866 11.3961 28.8747 11.6084C28.5628 11.8207 28.3197 12.1226 28.1761 12.4757C28.0326 12.8288 27.995 13.2174 28.0682 13.5922C28.1414 13.9671 28.322 14.3114 28.5873 14.5817C28.8525 14.852 29.1905 15.036 29.5584 15.1106C29.9264 15.1852 30.3077 15.1469 30.6543 15.0006C31.0009 14.8544 31.2971 14.6067 31.5055 14.2889C31.7139 13.9711 31.8252 13.5974 31.8252 13.2152C31.8252 12.9614 31.7761 12.7101 31.6808 12.4757C31.5855 12.2412 31.4458 12.0282 31.2696 11.8487C31.0935 11.6693 30.8844 11.5269 30.6543 11.4298C30.4242 11.3327 30.1775 11.2827 29.9285 11.2827Z" fill="white"/>
<path d="M21.365 16.1629C22.5228 16.1623 23.6547 16.5115 24.6177 17.1664C25.5806 17.8214 26.3312 18.7526 26.7746 19.8423C27.2179 20.932 27.3341 22.1312 27.1084 23.2882C26.8827 24.4451 26.3252 25.5079 25.5066 26.342C24.6879 27.1761 23.6448 27.7441 22.5093 27.9741C21.3737 28.204 20.1967 28.0857 19.1272 27.6339C18.0577 27.1822 17.1437 26.4174 16.5009 25.4363C15.8581 24.4553 15.5153 23.3019 15.516 22.1223C15.5186 20.5426 16.1357 19.0284 17.232 17.9114C18.3284 16.7943 19.8146 16.1656 21.365 16.1629ZM21.365 13.4649C19.6844 13.4682 18.0424 13.9791 16.6466 14.9329C15.2508 15.8867 14.1639 17.2407 13.5231 18.8238C12.8824 20.4068 12.7166 22.1479 13.0467 23.8269C13.3768 25.5059 14.1881 27.0476 15.3779 28.257C16.5677 29.4664 18.0826 30.2893 19.7313 30.6218C21.38 30.9542 23.0884 30.7812 24.6407 30.1247C26.1929 29.4682 27.5193 28.3576 28.4522 26.9332C29.3851 25.5089 29.8827 23.8347 29.882 22.1223C29.8816 20.9838 29.6609 19.8566 29.2324 18.8051C28.804 17.7536 28.1763 16.7985 27.3853 15.9944C26.5942 15.1903 25.6553 14.553 24.6223 14.119C23.5893 13.6849 22.4824 13.4626 21.365 13.4649Z" fill="white"/>
</svg>
