<svg width="43" height="44" viewBox="0 0 43 44" fill="none" xmlns="http://www.w3.org/2000/svg">
<g clip-path="url(#clip0_607_1771)">
<path d="M29.2392 10.8308C30.1092 10.8429 30.9679 11.0334 31.7641 11.3909C32.5603 11.7485 33.2776 12.2656 33.8734 12.9117C33.8734 12.9117 36.4024 12.4058 37.7993 11.4041C37.7993 11.4041 37.4484 13.3872 35.1214 14.9049H35.1412C35.32 14.9049 36.6242 14.8711 38.6765 13.8931C38.6765 13.8931 38.2826 15.0364 35.598 17.2117C35.7602 22.3583 33.2611 31.8724 24.0125 35.2585C21.9813 36.0156 19.8364 36.407 17.6736 36.4153C14.2084 36.4314 10.8142 35.4151 7.90863 33.4913C8.40515 33.5419 8.85202 33.5419 9.29889 33.5419C14.7673 33.5419 17.4154 30.6819 17.2697 30.6819H17.0678C12.4336 30.6819 11.3048 26.1626 11.3048 26.1626C11.676 26.3912 12.1066 26.4994 12.5395 26.4729C13.0991 26.461 13.6551 26.3783 14.1946 26.2267C8.96457 24.9653 9.15987 19.8525 9.15987 19.8525C9.86664 20.3331 10.6936 20.5975 11.5432 20.6147C11.6829 20.6163 11.8225 20.605 11.9603 20.581C7.18371 16.7294 10.0602 12.1326 10.0602 12.1326C15.4425 18.4967 22.0595 18.7226 22.9698 18.7226H23.079C22.5891 15.7345 23.7973 12.8644 27.0512 11.3029C27.73 10.9853 28.4692 10.8241 29.2161 10.8308M40.8446 6.56104L36.5646 9.62336C35.9109 10.0226 35.2041 10.3236 34.466 10.5171C32.9679 9.32525 31.1266 8.66869 29.226 8.64868C28.1635 8.63866 27.1121 8.86904 26.1476 9.3232C23.1088 10.7768 21.2618 13.286 20.8943 16.2977C17.297 15.5418 14.0555 13.5702 11.6954 10.7026L9.80866 8.4733L8.25289 10.9454C7.24991 12.6288 6.85209 14.615 7.12744 16.5642L7.00496 19.7783C6.97747 21.8186 7.64285 23.8059 8.88844 25.4038L9.21945 26.7191C9.69422 28.4176 10.6582 29.932 11.9867 31.0664C11.1029 31.2634 10.2004 31.3607 9.29558 31.3564C8.90168 31.3564 8.49453 31.3396 8.08407 31.3058L0.493896 30.6617L6.63422 35.2585C9.91104 37.4551 13.7512 38.6178 17.6736 38.6008C20.0876 38.5942 22.4822 38.1605 24.7507 37.3192C29.3013 35.6645 33.0566 32.2959 35.2438 27.9063C36.7569 24.9086 37.6119 21.6116 37.7496 18.2437C39.9443 16.318 40.5467 15.0904 40.7089 14.6216L42.4037 9.70768L40.0866 10.8071L40.8446 6.56104Z" fill="white"/>
</g>
<defs>
<clipPath id="clip0_607_1771">
<rect width="42.3699" height="43.1693" fill="white" transform="translate(0.460693 0.490234)"/>
</clipPath>
</defs>
</svg>
