<svg width="44" height="44" viewBox="0 0 44 44" fill="none" xmlns="http://www.w3.org/2000/svg">
<path d="M22.3306 4.79004C12.8319 4.79004 5.13062 12.4892 5.13062 21.9879C5.13062 25.3419 6.10499 28.4633 7.76652 31.1086L5.23984 37.209C4.93755 37.9396 5.28456 38.7768 6.01556 39.0817C6.38235 39.233 6.77408 39.2214 7.11292 39.0817L13.2133 36.5537C15.8583 38.2139 18.9766 39.1909 22.3306 39.1909C31.828 39.1909 39.5306 31.4866 39.5306 21.9879C39.5306 12.4892 31.828 4.79004 22.3306 4.79004ZM22.3306 36.3241C19.6526 36.3241 17.0257 35.5626 14.7355 34.1268L13.4816 33.3403L9.21218 35.1093L10.9812 30.8373L10.1947 29.583C8.75552 27.2932 7.99743 24.6668 7.99743 21.9879C7.99743 14.0858 14.4276 7.65642 22.3306 7.65642C30.2336 7.65642 36.6638 14.0853 36.6638 21.9879C36.6638 29.8909 30.2336 36.3241 22.3306 36.3241Z" fill="white"/>
<path d="M28.4111 28.0683C27.294 29.1881 25.4772 29.1881 24.3558 28.0683C24.3558 28.0683 16.2499 19.9611 16.2512 19.9611C15.1314 18.8414 15.1314 17.0272 16.2512 15.9075L18.2769 13.8813L21.317 18.9476L19.7969 20.4677L23.8493 24.5217L25.3693 23.0016L30.4403 26.0443L28.4111 28.0683Z" fill="white"/>
</svg>
