<svg width="44" height="44" viewBox="0 0 44 44" fill="none" xmlns="http://www.w3.org/2000/svg">
<path d="M22.4153 11.3802C22.4929 11.3802 30.1453 11.3802 35.1975 11.7444L35.4201 11.7647C36.0946 11.8254 36.8231 11.8962 37.5381 12.6348C37.8753 12.9721 38.2598 14.166 38.3913 15.0192C38.6045 16.8904 38.7171 18.7716 38.7286 20.6548V23.4339C38.7167 25.3182 38.6041 27.2006 38.3913 29.0729C38.2665 29.9059 37.8719 31.1167 37.5414 31.4337C36.8298 32.1689 36.0845 32.2397 35.4268 32.3038L35.1975 32.3274C30.233 32.6647 22.7559 32.6984 22.4187 32.6984C22.0308 32.6984 12.9754 32.6074 10.0851 32.3612C9.91305 32.3342 9.74779 32.3106 9.55218 32.2903C8.78323 32.1993 7.90972 32.0947 7.28242 31.4438C6.94516 31.1065 6.56068 29.916 6.43252 29.0661C6.21932 27.195 6.10673 25.3137 6.09526 23.4305V20.6785C6.10724 18.7952 6.21983 16.914 6.43252 15.0428C6.56405 14.1828 6.95527 12.9889 7.28579 12.6584C8.00078 11.9198 8.74613 11.8523 9.40378 11.7883L9.62638 11.768C14.6853 11.4072 22.331 11.4038 22.4052 11.4038H22.4153M22.4153 9.2116C22.4153 9.2116 14.628 9.2116 9.43751 9.58258C8.7124 9.6669 7.13402 9.67364 5.72765 11.1306C4.61806 12.2436 4.25382 14.7696 4.25382 14.7696C4.01798 16.7308 3.88851 18.7033 3.86597 20.6785V23.4575C3.88202 25.4402 4.00586 27.4206 4.23695 29.3899C4.23695 29.3899 4.59782 31.916 5.71078 33.0256C7.1239 34.4825 8.97546 34.4387 9.80175 34.5938C12.7696 34.8737 22.4153 34.9614 22.4153 34.9614C22.4153 34.9614 30.2094 34.9614 35.4032 34.5803C36.1283 34.496 37.7101 34.4859 39.1131 33.0289C40.2227 31.9193 40.5869 29.3933 40.5869 29.3933C40.8202 27.4241 40.9463 25.4437 40.9646 23.4609V20.6818C40.9485 18.6991 40.8247 16.7187 40.5936 14.7494C40.5936 14.7494 40.2328 12.2233 39.1198 11.1104C37.7101 9.65341 36.1283 9.64329 35.4099 9.56235C30.2094 9.18799 22.4153 9.18799 22.4153 9.18799V9.2116Z" fill="white"/>
<path d="M19.0864 16.5474V27.6028L28.5263 22.0751L19.0864 16.5474Z" fill="white"/>
</svg>
